<svg width="512" height="512" viewBox="0 0 512 512" fill="none" xmlns="http://www.w3.org/2000/svg">
<g clip-path="url(#clip0_113_853)">
<rect width="512" height="512" rx="64" fill="white"/>
<mask id="mask0_113_853" style="mask-type:alpha" maskUnits="userSpaceOnUse" x="0" y="1" width="512" height="512">
<rect y="1" width="512" height="512" rx="114" fill="black"/>
</mask>
<g mask="url(#mask0_113_853)">
</g>
<rect width="360" height="359" transform="translate(76 77)" fill="white"/>
<rect x="87.25" y="88.2188" width="67.5" height="67.3125" rx="4" fill="#D9D9D9"/>
<rect x="177.25" y="88.2188" width="67.5" height="67.3125" rx="4" fill="#D9D9D9"/>
<rect x="87.75" y="178.469" width="66.5" height="66.3125" rx="3.5" stroke="#D9D9D9"/>
<rect x="87.25" y="267.719" width="67.5" height="67.3125" rx="4" fill="#D9D9D9"/>
<rect x="87.25" y="357.469" width="157.5" height="67.3125" rx="4" fill="#D9D9D9"/>
<rect x="267.75" y="357.969" width="66.5" height="66.3125" rx="3.5" stroke="#D9D9D9"/>
<rect x="357.25" y="357.469" width="67.5" height="67.3125" rx="4" fill="#D9D9D9"/>
<rect x="267.25" y="88.2188" width="67.5" height="67.3125" rx="4" fill="#D9D9D9"/>
<rect x="357.75" y="88.7188" width="66.5" height="66.3125" rx="3.5" stroke="#D9D9D9"/>
<path fill-rule="evenodd" clip-rule="evenodd" d="M181.25 177.969C179.041 177.969 177.25 179.76 177.25 181.969V331.031C177.25 333.24 179.041 335.031 181.25 335.031H420.75C422.959 335.031 424.75 333.24 424.75 331.031V181.969C424.75 179.76 422.959 177.969 420.75 177.969H181.25ZM380.107 281.109C375.713 282.935 372.783 285.856 371.319 290.238H365.46V294.255H370.22C369.854 298.636 371.319 302.653 374.248 305.574L376.445 307.035L374.614 312.877C374.248 313.973 374.248 315.068 374.248 316.529C374.248 318.72 374.98 320.545 376.445 322.736C377.91 324.562 379.374 326.023 381.571 326.753C382.67 327.118 384.134 327.118 385.233 327.118C388.895 327.118 391.824 325.292 394.021 322.371C395.119 322.736 396.218 322.736 398.049 322.736C402.077 322.736 405.372 321.276 408.301 318.354C412.329 314.338 413.428 309.591 411.963 304.114C413.794 303.018 414.892 301.192 415.991 298.636C416.723 296.08 416.723 293.889 415.991 291.333C415.258 289.508 414.16 287.682 411.963 286.221C410.132 284.761 407.935 284.03 405.738 284.03C404.273 284.03 403.175 284.396 402.077 284.761L396.95 286.586L395.486 285.126C392.556 282.205 389.261 280.744 385.233 280.744H383.768V275.632H380.107V281.109ZM409.034 293.889C409.766 296.08 409.034 297.541 406.837 298.636C403.175 299.732 398.781 299.002 392.922 296.08L404.64 291.699C406.837 290.968 408.301 291.699 409.034 293.889ZM388.528 316.894C387.43 319.085 385.965 319.815 383.768 319.085C381.571 318.354 380.839 316.894 381.571 314.338L385.965 303.018C388.895 308.861 389.627 313.242 388.528 316.894ZM381.571 293.889L379.374 299.732C378.723 298.866 378.201 297.873 377.731 296.979C377.408 296.364 377.109 295.796 376.811 295.35C376.811 293.524 377.543 292.064 379.008 290.603C380.473 289.143 382.304 288.412 384.134 288.412C385.965 288.412 387.43 289.143 388.895 290.238L383.036 292.429H382.67L381.571 293.524V293.889Z" fill="#FFD939"/>
</g>
<defs>
<clipPath id="clip0_113_853">
<rect width="512" height="512" rx="64" fill="white"/>
</clipPath>
</defs>
</svg>
